<svg id="Layer_1" data-name="Layer 1" xmlns="http://www.w3.org/2000/svg" viewBox="0 0 431.6 431.62"><title>raising-hand-icon-5</title><path d="M401,458.32l-29-31.16-1.23.15v6.55c0,7.67-.14,15.34.07,23a9.39,9.39,0,0,1-3.22,7.82c-10.42,9.83-20.7,19.82-30.95,29.83-17.59,17.18-20.31,38.69-7.65,59.91.32.55.59,1.12,1.1,2.08H227.22v-5.63c0-44.32-.05-88.65.08-133,0-3.74-1-5.93-4.32-8-27-16.44-53.84-33.21-80.85-49.68-8.21-5-12.93-11.93-15.07-21.26q-13-56.64-26.5-113.15c-1.84-7.78-1.72-15.14,2.25-22.23,5.39-9.61,16.31-15.46,26.66-14.27,12.12,1.39,21.5,9.25,24.35,21.17,7.78,32.5,15.55,65,22.82,97.62,1.58,7.06,4.64,11.59,11,15.17,13.18,7.46,25.82,15.85,38.83,23.62a16.18,16.18,0,0,0,7.88,2.21c34.82.14,69.65.26,104.48,0,21.34-.14,39.21,7.11,54,22.59,21.42,22.4,43.2,44.46,64.75,66.73,12.64,13,12.37,29.23-.7,41.93q-35,34-70,67.8c-8.11,7.84-17.66,10.63-28.46,7.09-10.56-3.46-16.85-11.12-18.7-22-1.61-9.54,1.5-17.76,8.4-24.47q24-23.35,48.14-46.58C397.51,461,399,459.9,401,458.32Z" transform="translate(-83.19 -189.18)"/><path d="M299,620.79H99.55c-11.77,0-16.34-4.56-16.34-16.25,0-5.34,0-10.67,0-16,0-10.39,4.92-15.32,15.29-15.32q91.5,0,183,0,108,0,216,0c13.16,0,17.33,4.12,17.34,17.27,0,5.17,0,10.33,0,15.5-.06,9.73-5.08,14.81-14.78,14.81q-66,0-132,0Z" transform="translate(-83.19 -189.18)"/><path d="M227.22,260.93a72,72,0,0,1,72.46-71.71c39.05.13,71.33,32.85,71.12,72.08a72.13,72.13,0,0,1-72.24,71.5C259.31,332.58,227.1,300.14,227.22,260.93Z" transform="translate(-83.19 -189.18)"/></svg>